# xmcd CD database file
#
# Track frame offsets:
#	150
#	14092
#	31517
#	46694
#	62662
#	80637
#	98216
#	114393
#	128996
#	145819
#	168181
#	179995
#	196276
#	217638
#
# Disc length: 3116 seconds
#
# Revision: 0
# Processed by: cddbd v1.5.2PL0 Copyright (c) Steve Scherf et al.
# Submitted via: CDex 1.70beta2
#
DISCID=ba0c2a0e
DTITLE=ApologetiX - ApologetiX Classics: Country
DYEAR=1900
DGENRE=Country
TTITLE0=Choose Your Daddy
TTITLE1=Bends to Low Places
TTITLE2=Save Your Voice (Quiet Down, Boy)
TTITLE3=Good News Bookie
TTITLE4=Humpty Dumpty Country Club
TTITLE5=People are Lazy
TTITLE6=The Devil Went Down to Jordan
TTITLE7=Fakey Shaky Parts
TTITLE8=Elijah
TTITLE9=Scripture
TTITLE10=I've Got Elijah Fightin' Baal
TTITLE11=Hey Zaccheus
TTITLE12=Sweet Oholibamah
TTITLE13=Not Logs Lincoln
EXTD=
EXTT0=
EXTT1=
EXTT2=
EXTT3=
EXTT4=
EXTT5=
EXTT6=
EXTT7=
EXTT8=
EXTT9=
EXTT10=
EXTT11=
EXTT12=
EXTT13=
PLAYORDER=
